HIERARCHY
ROOT hip
{
	OFFSET 0.000000 0.000000 0.000000 
	CHANNELS 6 Xposition Yposition Zposition Xrotation Zrotation Yrotation
	JOINT abdomen
	{
		OFFSET 0.000000 3.402643 0.000000 
		CHANNELS 3 Xrotation Zrotation Yrotation
		JOINT chest
		{
			OFFSET 0.000000 8.438565 -0.680529 
			CHANNELS 3 Xrotation Zrotation Yrotation
			JOINT neck
			{
				OFFSET 0.000000 10.207942 -0.272212 
				CHANNELS 3 Xrotation Zrotation Yrotation
				JOINT head
				{
					OFFSET 0.000000 3.130431 0.000000 
					CHANNELS 3 Xrotation Zrotation Yrotation
					End Site
					{
						OFFSET 0.000000 3.130435 0.000000 
					}
				}
			}
			JOINT lCollar
			{
				OFFSET 3.470700 6.669187 -0.816635 
				CHANNELS 3 Yrotation Zrotation Xrotation
				JOINT lShldr
				{
					OFFSET 3.198488 0.000000 0.000000 
					CHANNELS 3 Zrotation Yrotation Xrotation
					JOINT lForeArm
					{
						OFFSET 10.139888 0.000000 0.000000 
						CHANNELS 3 Yrotation Zrotation Xrotation
						JOINT lHand
						{
							OFFSET 8.370511 0.000000 0.000000 
							CHANNELS 3 Zrotation Yrotation Xrotation
							End Site
							{
								OFFSET 4.083176 0.000000 0.000000 
							}
						}
					}
				}
			}
			JOINT rCollar
			{
				OFFSET -3.470700 6.669187 -0.816635 
				CHANNELS 3 Yrotation Zrotation Xrotation
				JOINT rShldr
				{
					OFFSET -3.198488 0.000000 0.000000 
					CHANNELS 3 Zrotation Yrotation Xrotation
					JOINT rForeArm
					{
						OFFSET -10.139888 0.000000 0.000000 
						CHANNELS 3 Yrotation Zrotation Xrotation
						JOINT rHand
						{
							OFFSET -8.370511 0.000000 0.000000 
							CHANNELS 3 Zrotation Yrotation Xrotation
							End Site
							{
								OFFSET -4.083176 0.000000 0.000000 
							}
						}
					}
				}
			}
		}
	}
	JOINT lThigh
	{
		OFFSET 5.308129 -1.633274 1.361059 
		CHANNELS 3 Xrotation Zrotation Yrotation
		JOINT lShin
		{
			OFFSET -2.041588 -20.007561 0.000000 
			CHANNELS 3 Xrotation Zrotation Yrotation
			JOINT lFoot
			{
				OFFSET 0.000000 -19.190928 -1.224953 
				CHANNELS 3 Xrotation Yrotation Zrotation
				End Site
				{
					OFFSET 0.000000 -2.449906 4.627600 
				}
			}
		}
	}
	JOINT rThigh
	{
		OFFSET -5.308129 -1.633274 1.361059 
		CHANNELS 3 Xrotation Zrotation Yrotation
		JOINT rShin
		{
			OFFSET 2.041588 -20.007561 0.000000 
			CHANNELS 3 Xrotation Zrotation Yrotation
			JOINT rFoot
			{
				OFFSET 0.000000 -19.190928 -1.224953 
				CHANNELS 3 Xrotation Yrotation Zrotation
				End Site
				{
					OFFSET 0.000000 -2.449906 4.627600 
				}
			}
		}
	}
}
MOTION
Frames: 10
Frame Time: 0.033333
1.289499 32.393314 1.289499 0.000000 0.000000 0.000000 25.102688 6.394765 -16.323036 -5.058582 0.065922 7.508560 42.029072 -1.478252 -15.207932 10.524219 0.508720 -0.030344 -20.413128 -5.957260 4.356387 -12.910438 -66.788383 -34.195415 -59.077900 -2.882187 1.767673 16.765085 -34.515488 -14.004627 -15.524402 4.541564 4.418725 86.657440 64.756889 47.603878 98.993027 3.196967 0.712858 -18.060646 -3.639519 37.249153 -56.741776 10.291103 7.167837 77.034920 2.062517 -4.674417 -19.786991 6.051591 0.033920 -29.928949 -20.064137 -24.280081 97.542259 -3.534662 4.415598 -50.262146 -8.295457 3.291031 
1.289499 32.393314 1.289499 0.000000 0.000000 0.000000 25.102688 6.394765 -16.323036 -5.576130 0.132115 7.506137 38.480015 -2.354222 -15.513880 10.524219 0.508720 -0.030344 -20.446028 -5.526398 0.700722 -22.680834 -62.998333 -24.529078 -63.667416 -2.955822 1.660118 16.765085 -34.515488 -14.004627 -14.897293 4.639653 0.745350 85.581795 59.546326 47.248028 101.539345 3.190785 0.642160 -19.113142 -3.179638 38.081028 -56.741776 10.291103 7.167837 77.034920 2.062517 -4.674417 -19.786991 6.051591 0.033920 -29.928949 -20.064137 -24.280081 97.542259 -3.534662 4.415598 -50.262146 -8.295457 3.291031 
1.289499 32.393314 1.289499 0.000000 0.000000 0.000000 25.102688 6.394765 -16.323036 -5.956957 0.179595 7.507824 35.954247 -2.976165 -15.690599 10.524219 0.508720 -0.030344 -20.453272 -5.205236 -1.895583 -27.971571 -60.490833 -19.131104 -65.759712 -2.981620 1.614360 16.765085 -34.515488 -14.004627 -14.449019 4.698997 -1.867264 85.637657 56.756073 47.229424 101.057755 3.198073 0.658686 -18.919241 -3.275624 37.919289 -56.741776 10.291103 7.167837 77.034920 2.062517 -4.674417 -19.786991 6.051591 0.033920 -29.928949 -20.064137 -24.280081 97.542259 -3.534662 4.415598 -50.262146 -8.295457 3.291031 
1.289499 32.393314 1.289499 0.000000 0.000000 0.000000 25.102688 6.394765 -16.323036 -5.908136 0.170108 7.505503 36.261997 -2.909206 -15.671881 10.524219 0.508720 -0.030344 -20.448881 -5.251969 -1.581721 -27.365335 -60.897392 -19.735199 -65.326233 -2.981297 1.616558 16.765085 -34.515488 -14.004627 -14.499057 4.685013 -1.551069 86.018227 57.628033 47.280830 99.799622 3.193523 0.697301 -18.385593 -3.501615 37.519848 -56.741776 10.291103 7.167837 77.034920 2.062517 -4.674417 -19.786991 6.051591 0.033920 -29.928949 -20.064137 -24.280081 97.542259 -3.534662 4.415598 -50.262146 -8.295457 3.291031 
1.289499 32.393314 1.289499 0.000000 0.000000 0.000000 25.102688 6.394765 -16.323036 -5.790956 0.160574 7.513122 37.072445 -2.701999 -15.610160 10.524219 0.508720 -0.030344 -20.445915 -5.345938 -0.745270 -25.684450 -61.951748 -21.406187 -64.181793 -2.961096 1.649066 16.765085 -34.515488 -14.004627 -14.642014 4.676847 -0.709595 86.573364 59.261440 47.371937 98.118507 3.196827 0.745329 -17.688848 -3.805094 36.965710 -56.741776 10.291103 7.167837 77.034920 2.062517 -4.674417 -19.786991 6.051591 0.033920 -29.928949 -20.064137 -24.280081 97.542259 -3.534662 4.415598 -50.262146 -8.295457 3.291031 
1.289499 32.393314 1.289499 0.000000 0.000000 0.000000 25.102688 6.394765 -16.323036 -5.615193 0.132139 7.506048 38.229942 -2.407319 -15.529096 10.524219 0.508720 -0.030344 -20.449493 -5.486753 0.446148 -23.075413 -63.421310 -24.006458 -62.503620 -2.937518 1.685985 16.765085 -34.515488 -14.004627 -14.855624 4.654567 0.489267 87.240761 61.346294 47.542526 96.322876 3.197752 0.796634 -16.940178 -4.110763 36.368801 -56.741776 10.291103 7.167837 77.034920 2.062517 -4.674417 -19.786991 6.051591 0.033920 -29.928949 -20.064137 -24.280081 97.542259 -3.534662 4.415598 -50.262146 -8.295457 3.291031 
1.289499 32.393314 1.289499 0.000000 0.000000 0.000000 25.102688 6.394765 -16.323036 -5.419890 0.113166 7.511152 39.548508 -2.084841 -15.417100 10.524219 0.508720 -0.030344 -20.433092 -5.647769 1.804711 -19.695923 -65.059219 -27.331617 -60.494801 -2.904037 1.740916 16.765085 -34.515488 -14.004627 -15.081440 4.623221 1.854685 87.944611 63.534107 47.823181 94.748108 3.196316 0.831688 -16.292223 -4.378197 35.842491 -56.741776 10.291103 7.167837 77.034920 2.062517 -4.674417 -19.786991 6.051591 0.033920 -29.928949 -20.064137 -24.280081 97.542259 -3.534662 4.415598 -50.262146 -8.295457 3.291031 
1.289499 32.393314 1.289499 0.000000 0.000000 0.000000 25.102688 6.394765 -16.323036 -5.224592 0.084810 7.513543 40.870464 -1.762501 -15.312402 10.524219 0.508720 -0.030344 -20.425467 -5.816335 3.163386 -15.790762 -66.669403 -31.148302 -58.367504 -2.871138 1.781614 16.765085 -34.515488 -14.004627 -15.319060 4.578548 3.220222 88.142296 65.086533 48.008545 94.748108 3.196316 0.831688 -16.292223 -4.378197 35.842491 -56.741776 10.291103 7.167837 77.034920 2.062517 -4.674417 -19.786991 6.051591 0.033920 -29.928949 -20.064137 -24.280081 97.542259 -3.534662 4.415598 -50.262146 -8.295457 3.291031 
1.289499 32.393314 1.289499 0.000000 0.000000 0.000000 25.102688 6.394765 -16.323036 -5.058582 0.065922 7.508560 42.029072 -1.478252 -15.207932 10.524219 0.508720 -0.030344 -20.413128 -5.957260 4.356387 -11.862858 -68.057289 -34.958122 -56.288483 -2.833844 1.825980 16.765085 -34.515488 -14.004627 -15.524402 4.541564 4.418725 88.341164 66.446060 48.196198 94.748108 3.196316 0.831688 -16.292223 -4.378197 35.842491 -56.741776 10.291103 7.167837 77.034920 2.062517 -4.674417 -19.786991 6.051591 0.033920 -29.928949 -20.064137 -24.280081 97.542259 -3.534662 4.415598 -50.262146 -8.295457 3.291031 
1.289499 32.393314 1.289499 0.000000 0.000000 0.000000 25.102688 6.394765 -16.323036 -5.058582 0.065922 7.508560 42.029072 -1.478252 -15.207932 10.524219 0.508720 -0.030344 -20.413128 -5.957260 4.356387 -11.110665 -68.877319 -35.518044 -54.480930 -2.803725 1.860329 16.765085 -34.515488 -14.004627 -15.524402 4.541564 4.418725 88.341164 66.446060 48.196198 94.748108 3.196316 0.831688 -16.292223 -4.378197 35.842491 -56.741776 10.291103 7.167837 77.034920 2.062517 -4.674417 -19.786991 6.051591 0.033920 -29.928949 -20.064137 -24.280081 97.542259 -3.534662 4.415598 -50.262146 -8.295457 3.291031 
